<svg width="1024" height="600" viewBox="0 0 1024 600" fill="none" xmlns="http://www.w3.org/2000/svg">
<rect width="1024" height="600" fill="white"/>
<line x1="950" y1="405" x2="950" y2="125" stroke="black" stroke-width="2" stroke-dasharray="6 6"/>
<line x1="799" y1="405" x2="799" y2="125" stroke="black" stroke-width="2" stroke-dasharray="6 6"/>
<line x1="899" y1="405" x2="899" y2="125" stroke="black" stroke-width="2" stroke-dasharray="6 6"/>
<line x1="99.9983" y1="374.5" x2="999.998" y2="373.476" stroke="#84A33B" stroke-width="3"/>
<line x1="100.003" y1="273.5" x2="1000" y2="275.588" stroke="#84A33B" stroke-width="3"/>
<path d="M99.2929 274.293C98.9024 274.683 98.9024 275.317 99.2929 275.707L105.657 282.071C106.047 282.462 106.681 282.462 107.071 282.071C107.462 281.681 107.462 281.047 107.071 280.657L101.414 275L107.071 269.343C107.462 268.953 107.462 268.319 107.071 267.929C106.681 267.538 106.047 267.538 105.657 267.929L99.2929 274.293ZM149.707 275.707C150.098 275.317 150.098 274.683 149.707 274.293L143.343 267.929C142.953 267.538 142.319 267.538 141.929 267.929C141.538 268.319 141.538 268.953 141.929 269.343L147.586 275L141.929 280.657C141.538 281.047 141.538 281.681 141.929 282.071C142.319 282.462 142.953 282.462 143.343 282.071L149.707 275.707ZM100 275V276H149V275V274H100V275Z" fill="black"/>
<path d="M149.293 249.293C148.902 249.683 148.902 250.317 149.293 250.707L155.657 257.071C156.047 257.462 156.681 257.462 157.071 257.071C157.462 256.681 157.462 256.047 157.071 255.657L151.414 250L157.071 244.343C157.462 243.953 157.462 243.319 157.071 242.929C156.681 242.538 156.047 242.538 155.657 242.929L149.293 249.293ZM200.707 250.707C201.098 250.317 201.098 249.683 200.707 249.293L194.343 242.929C193.953 242.538 193.319 242.538 192.929 242.929C192.538 243.319 192.538 243.953 192.929 244.343L198.586 250L192.929 255.657C192.538 256.047 192.538 256.681 192.929 257.071C193.319 257.462 193.953 257.462 194.343 257.071L200.707 250.707ZM150 250V251H200V250V249H150V250Z" fill="black"/>
<path d="M199.293 149.293C198.902 149.683 198.902 150.317 199.293 150.707L205.657 157.071C206.047 157.462 206.681 157.462 207.071 157.071C207.462 156.681 207.462 156.047 207.071 155.657L201.414 150L207.071 144.343C207.462 143.953 207.462 143.319 207.071 142.929C206.681 142.538 206.047 142.538 205.657 142.929L199.293 149.293ZM300.707 150.707C301.098 150.317 301.098 149.683 300.707 149.293L294.343 142.929C293.953 142.538 293.319 142.538 292.929 142.929C292.538 143.319 292.538 143.953 292.929 144.343L298.586 150L292.929 155.657C292.538 156.047 292.538 156.681 292.929 157.071C293.319 157.462 293.953 157.462 294.343 157.071L300.707 150.707ZM200 150V151H300V150V149H200V150Z" fill="black"/>
<path d="M299.293 299.293C298.902 299.683 298.902 300.317 299.293 300.707L305.657 307.071C306.047 307.462 306.681 307.462 307.071 307.071C307.462 306.681 307.462 306.047 307.071 305.657L301.414 300L307.071 294.343C307.462 293.953 307.462 293.319 307.071 292.929C306.681 292.538 306.047 292.538 305.657 292.929L299.293 299.293ZM400.707 300.707C401.098 300.317 401.098 299.683 400.707 299.293L394.343 292.929C393.953 292.538 393.319 292.538 392.929 292.929C392.538 293.319 392.538 293.953 392.929 294.343L398.586 300L392.929 305.657C392.538 306.047 392.538 306.681 392.929 307.071C393.319 307.462 393.953 307.462 394.343 307.071L400.707 300.707ZM300 300V301H400V300V299H300V300Z" fill="black"/>
<path d="M399.293 349.293C398.902 349.683 398.902 350.317 399.293 350.707L405.657 357.071C406.047 357.462 406.681 357.462 407.071 357.071C407.462 356.681 407.462 356.047 407.071 355.657L401.414 350L407.071 344.343C407.462 343.953 407.462 343.319 407.071 342.929C406.681 342.538 406.047 342.538 405.657 342.929L399.293 349.293ZM500.707 350.707C501.098 350.317 501.098 349.683 500.707 349.293L494.343 342.929C493.953 342.538 493.319 342.538 492.929 342.929C492.538 343.319 492.538 343.953 492.929 344.343L498.586 350L492.929 355.657C492.538 356.047 492.538 356.681 492.929 357.071C493.319 357.462 493.953 357.462 494.343 357.071L500.707 350.707ZM400 350V351H500V350V349H400V350Z" fill="black"/>
<path d="M500.293 224.293C499.902 224.683 499.902 225.317 500.293 225.707L506.657 232.071C507.047 232.462 507.681 232.462 508.071 232.071C508.462 231.681 508.462 231.047 508.071 230.657L502.414 225L508.071 219.343C508.462 218.953 508.462 218.319 508.071 217.929C507.681 217.538 507.047 217.538 506.657 217.929L500.293 224.293ZM601.707 225.707C602.098 225.317 602.098 224.683 601.707 224.293L595.343 217.929C594.953 217.538 594.319 217.538 593.929 217.929C593.538 218.319 593.538 218.953 593.929 219.343L599.586 225L593.929 230.657C593.538 231.047 593.538 231.681 593.929 232.071C594.319 232.462 594.953 232.462 595.343 232.071L601.707 225.707ZM501 225V226H601V225V224H501V225Z" fill="black"/>
<path d="M599.293 149.293C598.902 149.683 598.902 150.317 599.293 150.707L605.657 157.071C606.047 157.462 606.681 157.462 607.071 157.071C607.462 156.681 607.462 156.047 607.071 155.657L601.414 150L607.071 144.343C607.462 143.953 607.462 143.319 607.071 142.929C606.681 142.538 606.047 142.538 605.657 142.929L599.293 149.293ZM700.707 150.707C701.098 150.317 701.098 149.683 700.707 149.293L694.343 142.929C693.953 142.538 693.319 142.538 692.929 142.929C692.538 143.319 692.538 143.953 692.929 144.343L698.586 150L692.929 155.657C692.538 156.047 692.538 156.681 692.929 157.071C693.319 157.462 693.953 157.462 694.343 157.071L700.707 150.707ZM600 150V151H700V150V149H600V150Z" fill="black"/>
<path d="M699.293 299.293C698.902 299.683 698.902 300.317 699.293 300.707L705.657 307.071C706.047 307.462 706.681 307.462 707.071 307.071C707.462 306.681 707.462 306.047 707.071 305.657L701.414 300L707.071 294.343C707.462 293.953 707.462 293.319 707.071 292.929C706.681 292.538 706.047 292.538 705.657 292.929L699.293 299.293ZM800.707 300.707C801.098 300.317 801.098 299.683 800.707 299.293L794.343 292.929C793.953 292.538 793.319 292.538 792.929 292.929C792.538 293.319 792.538 293.953 792.929 294.343L798.586 300L792.929 305.657C792.538 306.047 792.538 306.681 792.929 307.071C793.319 307.462 793.953 307.462 794.343 307.071L800.707 300.707ZM700 300V301H800V300V299H700V300Z" fill="black"/>
<path d="M799.293 349.293C798.902 349.683 798.902 350.317 799.293 350.707L805.657 357.071C806.047 357.462 806.681 357.462 807.071 357.071C807.462 356.681 807.462 356.047 807.071 355.657L801.414 350L807.071 344.343C807.462 343.953 807.462 343.319 807.071 342.929C806.681 342.538 806.047 342.538 805.657 342.929L799.293 349.293ZM900.707 350.707C901.098 350.317 901.098 349.683 900.707 349.293L894.343 342.929C893.953 342.538 893.319 342.538 892.929 342.929C892.538 343.319 892.538 343.953 892.929 344.343L898.586 350L892.929 355.657C892.538 356.047 892.538 356.681 892.929 357.071C893.319 357.462 893.953 357.462 894.343 357.071L900.707 350.707ZM800 350V351H900V350V349H800V350Z" fill="black"/>
<path d="M899.293 249.293C898.902 249.683 898.902 250.317 899.293 250.707L905.657 257.071C906.047 257.462 906.681 257.462 907.071 257.071C907.462 256.681 907.462 256.047 907.071 255.657L901.414 250L907.071 244.343C907.462 243.953 907.462 243.319 907.071 242.929C906.681 242.538 906.047 242.538 905.657 242.929L899.293 249.293ZM951.707 250.707C952.098 250.317 952.098 249.683 951.707 249.293L945.343 242.929C944.953 242.538 944.319 242.538 943.929 242.929C943.538 243.319 943.538 243.953 943.929 244.343L949.586 250L943.929 255.657C943.538 256.047 943.538 256.681 943.929 257.071C944.319 257.462 944.953 257.462 945.343 257.071L951.707 250.707ZM900 250V251H951V250V249H900V250Z" fill="black"/>
<path d="M949.293 274.293C948.902 274.683 948.902 275.317 949.293 275.707L955.657 282.071C956.047 282.462 956.681 282.462 957.071 282.071C957.462 281.681 957.462 281.047 957.071 280.657L951.414 275L957.071 269.343C957.462 268.953 957.462 268.319 957.071 267.929C956.681 267.538 956.047 267.538 955.657 267.929L949.293 274.293ZM1001.71 275.707C1002.1 275.317 1002.1 274.683 1001.71 274.293L995.343 267.929C994.953 267.538 994.319 267.538 993.929 267.929C993.538 268.319 993.538 268.953 993.929 269.343L999.586 275L993.929 280.657C993.538 281.047 993.538 281.681 993.929 282.071C994.319 282.462 994.953 282.462 995.343 282.071L1001.71 275.707ZM950 275V276H1001V275V274H950V275Z" fill="black"/>
<line x1="99" y1="405" x2="99" y2="125" stroke="black" stroke-width="2" stroke-dasharray="6 6"/>
<line x1="149" y1="405" x2="149" y2="125" stroke="black" stroke-width="2" stroke-dasharray="6 6"/>
<line x1="199" y1="405" x2="199" y2="125" stroke="black" stroke-width="2" stroke-dasharray="6 6"/>
<line x1="299" y1="405" x2="299" y2="125" stroke="black" stroke-width="2" stroke-dasharray="6 6"/>
<line x1="399" y1="405" x2="399" y2="125" stroke="black" stroke-width="2" stroke-dasharray="6 6"/>
<line x1="499" y1="405" x2="499" y2="125" stroke="black" stroke-width="2" stroke-dasharray="6 6"/>
<line x1="599" y1="405" x2="599" y2="125" stroke="black" stroke-width="2" stroke-dasharray="6 6"/>
<line x1="699" y1="405" x2="699" y2="125" stroke="black" stroke-width="2" stroke-dasharray="6 6"/>
<path d="M99.5 227.5H150L200 75H300L400 375.5H500L600 75H700L800 375.5H900L951.5 225.5H1000" stroke="#0728FB" stroke-opacity="0.97" stroke-width="5"/>
<path d="M116.966 252.017V250.455H127.875V252.017H123.301V265H121.54V252.017H116.966ZM135.451 250.455V265H133.69V252.301H133.605L130.054 254.659V252.869L133.69 250.455H135.451Z" fill="black"/>
<path d="M163.966 228.017V226.455H174.875V228.017H170.301V241H168.54V228.017H163.966ZM177.338 241V239.722L182.139 234.466C182.702 233.85 183.166 233.315 183.531 232.861C183.895 232.402 184.165 231.971 184.341 231.568C184.52 231.161 184.61 230.735 184.61 230.29C184.61 229.778 184.487 229.336 184.241 228.962C184 228.588 183.668 228.299 183.247 228.095C182.825 227.892 182.352 227.79 181.826 227.79C181.268 227.79 180.78 227.906 180.363 228.138C179.951 228.365 179.632 228.685 179.404 229.097C179.182 229.509 179.071 229.991 179.071 230.545H177.395C177.395 229.693 177.591 228.945 177.984 228.301C178.377 227.657 178.912 227.155 179.589 226.795C180.271 226.436 181.036 226.256 181.883 226.256C182.735 226.256 183.491 226.436 184.149 226.795C184.807 227.155 185.323 227.641 185.697 228.251C186.071 228.862 186.258 229.542 186.258 230.29C186.258 230.825 186.161 231.348 185.967 231.859C185.778 232.366 185.446 232.932 184.973 233.557C184.504 234.177 183.853 234.935 183.02 235.83L179.752 239.324V239.438H186.514V241H177.338Z" fill="black"/>
<path d="M412.966 332.017V330.455H423.875V332.017H419.301V345H417.54V332.017H412.966ZM430.883 345.199C430.05 345.199 429.299 345.033 428.632 344.702C427.964 344.37 427.429 343.916 427.027 343.338C426.624 342.76 426.404 342.102 426.366 341.364H428.071C428.137 342.022 428.435 342.566 428.966 342.997C429.501 343.423 430.14 343.636 430.883 343.636C431.48 343.636 432.01 343.497 432.474 343.217C432.943 342.938 433.31 342.554 433.575 342.067C433.845 341.574 433.98 341.018 433.98 340.398C433.98 339.763 433.84 339.197 433.561 338.7C433.286 338.198 432.907 337.803 432.424 337.514C431.941 337.225 431.39 337.079 430.77 337.074C430.324 337.069 429.868 337.138 429.399 337.28C428.93 337.417 428.544 337.595 428.241 337.812L426.593 337.614L427.474 330.455H435.031V332.017H428.951L428.44 336.307H428.525C428.824 336.07 429.198 335.874 429.647 335.717C430.097 335.561 430.566 335.483 431.054 335.483C431.944 335.483 432.737 335.696 433.433 336.122C434.134 336.544 434.683 337.121 435.081 337.855C435.483 338.589 435.684 339.427 435.684 340.369C435.684 341.297 435.476 342.126 435.059 342.855C434.647 343.58 434.079 344.152 433.355 344.574C432.63 344.991 431.806 345.199 430.883 345.199Z" fill="black"/>
<path d="M513.966 204.017V202.455H524.875V204.017H520.301V217H518.54V204.017H513.966ZM532.167 217.199C531.571 217.189 530.974 217.076 530.377 216.858C529.781 216.64 529.236 216.273 528.744 215.757C528.252 215.236 527.856 214.533 527.558 213.648C527.26 212.758 527.11 211.64 527.11 210.295C527.11 209.008 527.231 207.866 527.473 206.872C527.714 205.873 528.065 205.033 528.524 204.351C528.983 203.664 529.537 203.143 530.186 202.788C530.839 202.433 531.575 202.256 532.395 202.256C533.209 202.256 533.933 202.419 534.568 202.746C535.207 203.068 535.728 203.518 536.13 204.095C536.533 204.673 536.793 205.338 536.912 206.091H535.179C535.018 205.437 534.705 204.895 534.241 204.464C533.777 204.034 533.162 203.818 532.395 203.818C531.268 203.818 530.38 204.308 529.731 205.288C529.087 206.268 528.763 207.644 528.758 209.415H528.872C529.137 209.012 529.452 208.669 529.816 208.385C530.186 208.096 530.593 207.874 531.038 207.717C531.483 207.561 531.954 207.483 532.451 207.483C533.285 207.483 534.047 207.691 534.738 208.108C535.43 208.52 535.984 209.09 536.4 209.82C536.817 210.544 537.025 211.375 537.025 212.312C537.025 213.212 536.824 214.036 536.422 214.784C536.019 215.527 535.453 216.119 534.724 216.56C534 216.995 533.147 217.208 532.167 217.199ZM532.167 215.636C532.764 215.636 533.299 215.487 533.772 215.189C534.251 214.891 534.627 214.491 534.902 213.989C535.181 213.487 535.321 212.928 535.321 212.312C535.321 211.711 535.186 211.164 534.916 210.672C534.651 210.175 534.284 209.779 533.815 209.486C533.351 209.192 532.821 209.045 532.224 209.045C531.774 209.045 531.355 209.135 530.967 209.315C530.579 209.491 530.238 209.732 529.944 210.04C529.655 210.348 529.428 210.7 529.262 211.098C529.097 211.491 529.014 211.905 529.014 212.341C529.014 212.919 529.149 213.458 529.419 213.96C529.693 214.462 530.067 214.867 530.541 215.175C531.019 215.482 531.561 215.636 532.167 215.636Z" fill="black"/>
<path d="M638.966 126.017V124.455H649.875V126.017H645.301V139H643.54V126.017H638.966ZM657.252 139.199C656.315 139.199 655.479 139.038 654.745 138.716C654.016 138.394 653.436 137.946 653.005 137.374C652.579 136.796 652.347 136.126 652.309 135.364H654.099C654.137 135.832 654.298 136.237 654.582 136.578C654.866 136.914 655.238 137.175 655.697 137.359C656.156 137.544 656.665 137.636 657.224 137.636C657.849 137.636 658.403 137.527 658.886 137.31C659.369 137.092 659.748 136.789 660.022 136.401C660.297 136.012 660.434 135.562 660.434 135.051C660.434 134.516 660.302 134.045 660.037 133.638C659.771 133.226 659.383 132.904 658.872 132.672C658.36 132.44 657.735 132.324 656.997 132.324H655.832V130.761H656.997C657.574 130.761 658.081 130.657 658.517 130.449C658.957 130.241 659.3 129.947 659.547 129.568C659.797 129.189 659.923 128.744 659.923 128.233C659.923 127.741 659.814 127.312 659.596 126.947C659.378 126.583 659.071 126.299 658.673 126.095C658.28 125.892 657.816 125.79 657.281 125.79C656.779 125.79 656.306 125.882 655.86 126.067C655.42 126.247 655.06 126.509 654.781 126.855C654.502 127.196 654.35 127.608 654.326 128.091H652.622C652.65 127.329 652.88 126.661 653.311 126.088C653.742 125.51 654.305 125.061 655.001 124.739C655.702 124.417 656.471 124.256 657.309 124.256C658.209 124.256 658.981 124.438 659.625 124.803C660.269 125.162 660.763 125.638 661.109 126.23C661.455 126.822 661.627 127.461 661.627 128.148C661.627 128.967 661.412 129.665 660.981 130.243C660.555 130.821 659.975 131.221 659.241 131.443V131.557C660.16 131.708 660.877 132.099 661.393 132.729C661.909 133.354 662.167 134.128 662.167 135.051C662.167 135.842 661.952 136.552 661.521 137.182C661.095 137.807 660.512 138.299 659.774 138.659C659.035 139.019 658.195 139.199 657.252 139.199Z" fill="black"/>
<path d="M738.966 283.017V281.455H749.875V283.017H745.301V296H743.54V283.017H738.966ZM750.63 293.017V291.568L757.022 281.455H758.073V283.699H757.363L752.533 291.341V291.455H761.141V293.017H750.63ZM757.476 296V292.577V291.902V281.455H759.152V296H757.476Z" fill="black"/>
<path d="M838.966 331.017V329.455H849.875V331.017H845.301V344H843.54V331.017H838.966ZM856.883 344.199C856.05 344.199 855.299 344.033 854.632 343.702C853.964 343.37 853.429 342.916 853.027 342.338C852.624 341.76 852.404 341.102 852.366 340.364H854.071C854.137 341.022 854.435 341.566 854.966 341.997C855.501 342.423 856.14 342.636 856.883 342.636C857.48 342.636 858.01 342.497 858.474 342.217C858.943 341.938 859.31 341.554 859.575 341.067C859.845 340.574 859.98 340.018 859.98 339.398C859.98 338.763 859.84 338.197 859.561 337.7C859.286 337.198 858.907 336.803 858.424 336.514C857.941 336.225 857.39 336.079 856.77 336.074C856.324 336.069 855.868 336.138 855.399 336.28C854.93 336.417 854.544 336.595 854.241 336.812L852.593 336.614L853.474 329.455H861.031V331.017H854.951L854.44 335.307H854.525C854.824 335.07 855.198 334.874 855.647 334.717C856.097 334.561 856.566 334.483 857.054 334.483C857.944 334.483 858.737 334.696 859.433 335.122C860.134 335.544 860.683 336.121 861.081 336.855C861.483 337.589 861.684 338.427 861.684 339.369C861.684 340.297 861.476 341.126 861.059 341.855C860.647 342.58 860.079 343.152 859.355 343.574C858.63 343.991 857.806 344.199 856.883 344.199Z" fill="black"/>
<path d="M913.966 228.017V226.455H924.875V228.017H920.301V241H918.54V228.017H913.966ZM927.792 241L934.298 228.131V228.017H926.798V226.455H936.116V228.102L929.639 241H927.792Z" fill="black"/>
<path d="M963.966 287.017V285.455H974.875V287.017H970.301V300H968.54V287.017H963.966ZM981.997 300.199C981.021 300.199 980.16 300.026 979.412 299.68C978.668 299.33 978.088 298.849 977.672 298.239C977.255 297.623 977.049 296.922 977.054 296.136C977.049 295.521 977.17 294.953 977.416 294.432C977.662 293.906 977.998 293.468 978.424 293.118C978.855 292.763 979.336 292.538 979.866 292.443V292.358C979.17 292.178 978.616 291.787 978.204 291.186C977.792 290.58 977.589 289.891 977.593 289.119C977.589 288.381 977.776 287.72 978.154 287.138C978.533 286.555 979.054 286.096 979.717 285.76C980.385 285.424 981.145 285.256 981.997 285.256C982.84 285.256 983.592 285.424 984.255 285.76C984.918 286.096 985.439 286.555 985.818 287.138C986.201 287.72 986.395 288.381 986.4 289.119C986.395 289.891 986.185 290.58 985.768 291.186C985.356 291.787 984.809 292.178 984.127 292.358V292.443C984.653 292.538 985.127 292.763 985.548 293.118C985.969 293.468 986.306 293.906 986.556 294.432C986.807 294.953 986.935 295.521 986.94 296.136C986.935 296.922 986.722 297.623 986.301 298.239C985.884 298.849 985.304 299.33 984.561 299.68C983.822 300.026 982.967 300.199 981.997 300.199ZM981.997 298.636C982.655 298.636 983.223 298.53 983.701 298.317C984.18 298.104 984.549 297.803 984.809 297.415C985.07 297.027 985.202 296.572 985.207 296.051C985.202 295.502 985.06 295.017 984.781 294.595C984.502 294.174 984.12 293.842 983.637 293.601C983.159 293.359 982.612 293.239 981.997 293.239C981.377 293.239 980.823 293.359 980.335 293.601C979.852 293.842 979.471 294.174 979.191 294.595C978.917 295.017 978.782 295.502 978.787 296.051C978.782 296.572 978.907 297.027 979.163 297.415C979.423 297.803 979.795 298.104 980.278 298.317C980.761 298.53 981.334 298.636 981.997 298.636ZM981.997 291.733C982.518 291.733 982.979 291.629 983.382 291.42C983.789 291.212 984.109 290.921 984.341 290.547C984.573 290.173 984.691 289.735 984.696 289.233C984.691 288.741 984.575 288.312 984.348 287.947C984.12 287.578 983.806 287.294 983.403 287.095C983.001 286.892 982.532 286.79 981.997 286.79C981.452 286.79 980.976 286.892 980.569 287.095C980.162 287.294 979.847 287.578 979.625 287.947C979.402 288.312 979.293 288.741 979.298 289.233C979.293 289.735 979.404 290.173 979.632 290.547C979.864 290.921 980.183 291.212 980.591 291.42C980.998 291.629 981.467 291.733 981.997 291.733Z" fill="black"/>
<path d="M210.966 131.017V129.455H221.875V131.017H217.301V144H215.54V131.017H210.966ZM229.252 144.199C228.315 144.199 227.479 144.038 226.745 143.716C226.016 143.394 225.436 142.946 225.005 142.374C224.579 141.796 224.347 141.126 224.309 140.364H226.099C226.137 140.832 226.298 141.237 226.582 141.578C226.866 141.914 227.238 142.175 227.697 142.359C228.156 142.544 228.665 142.636 229.224 142.636C229.849 142.636 230.403 142.527 230.886 142.31C231.369 142.092 231.748 141.789 232.022 141.401C232.297 141.012 232.434 140.562 232.434 140.051C232.434 139.516 232.302 139.045 232.037 138.638C231.771 138.226 231.383 137.904 230.872 137.672C230.36 137.44 229.735 137.324 228.997 137.324H227.832V135.761H228.997C229.574 135.761 230.081 135.657 230.517 135.449C230.957 135.241 231.3 134.947 231.547 134.568C231.797 134.189 231.923 133.744 231.923 133.233C231.923 132.741 231.814 132.312 231.596 131.947C231.378 131.583 231.071 131.299 230.673 131.095C230.28 130.892 229.816 130.79 229.281 130.79C228.779 130.79 228.306 130.882 227.86 131.067C227.42 131.247 227.06 131.509 226.781 131.855C226.502 132.196 226.35 132.608 226.326 133.091H224.622C224.65 132.329 224.88 131.661 225.311 131.088C225.742 130.51 226.305 130.061 227.001 129.739C227.702 129.417 228.471 129.256 229.309 129.256C230.209 129.256 230.981 129.438 231.625 129.803C232.269 130.162 232.763 130.638 233.109 131.23C233.455 131.822 233.627 132.461 233.627 133.148C233.627 133.967 233.412 134.665 232.981 135.243C232.555 135.821 231.975 136.221 231.241 136.443V136.557C232.16 136.708 232.877 137.099 233.393 137.729C233.909 138.354 234.167 139.128 234.167 140.051C234.167 140.842 233.952 141.552 233.521 142.182C233.095 142.807 232.512 143.299 231.774 143.659C231.035 144.019 230.195 144.199 229.252 144.199Z" fill="black"/>
<path d="M314.966 276.017V274.455H325.875V276.017H321.301V289H319.54V276.017H314.966ZM326.63 286.017V284.568L333.022 274.455H334.073V276.699H333.363L328.533 284.341V284.455H337.141V286.017H326.63ZM333.476 289V285.577V284.902V274.455H335.152V289H333.476Z" fill="black"/>
<path d="M43.4 266.4H44.76V268.24C44.76 269.4 44.5533 270.48 44.14 271.48C43.74 272.48 43.1667 273.353 42.42 274.1C41.6733 274.833 40.8 275.393 39.8 275.78L38.9 274.46C39.82 274.127 40.6133 273.647 41.28 273.02C41.96 272.393 42.48 271.673 42.84 270.86C43.2133 270.033 43.4 269.16 43.4 268.24V266.4ZM43.7 266.4H45.04V268.38C45.04 268.98 45.1467 269.573 45.36 270.16C45.5733 270.733 45.8733 271.267 46.26 271.76C46.66 272.253 47.1267 272.693 47.66 273.08C48.1933 273.453 48.7867 273.753 49.44 273.98L48.56 275.28C47.6 274.92 46.7533 274.4 46.02 273.72C45.2867 273.027 44.7133 272.227 44.3 271.32C43.9 270.4 43.7 269.42 43.7 268.38V266.4ZM51.38 265.46H53.04V276.44H51.38V265.46ZM52.58 270.14H55.7V271.54H52.58V270.14ZM47.28 276.92C48.5067 276.92 49.56 277.053 50.44 277.32C51.3333 277.573 52.02 277.947 52.5 278.44C52.98 278.933 53.22 279.527 53.22 280.22C53.22 280.913 52.98 281.507 52.5 282C52.02 282.493 51.3333 282.867 50.44 283.12C49.56 283.387 48.5067 283.52 47.28 283.52C46.0533 283.52 44.9933 283.387 44.1 283.12C43.2067 282.867 42.52 282.493 42.04 282C41.56 281.507 41.32 280.913 41.32 280.22C41.32 279.527 41.56 278.933 42.04 278.44C42.52 277.947 43.2067 277.573 44.1 277.32C44.9933 277.053 46.0533 276.92 47.28 276.92ZM47.28 278.24C46.3867 278.24 45.6133 278.32 44.96 278.48C44.32 278.64 43.8267 278.867 43.48 279.16C43.1333 279.453 42.96 279.807 42.96 280.22C42.96 280.647 43.1333 281.007 43.48 281.3C43.8267 281.593 44.32 281.82 44.96 281.98C45.6133 282.127 46.3867 282.2 47.28 282.2C48.1733 282.2 48.94 282.127 49.58 281.98C50.22 281.82 50.7133 281.593 51.06 281.3C51.4067 281.007 51.58 280.647 51.58 280.22C51.58 279.807 51.4067 279.453 51.06 279.16C50.7133 278.867 50.22 278.64 49.58 278.48C48.94 278.32 48.1733 278.24 47.28 278.24ZM57.3984 275.08H73.7384V276.44H57.3984V275.08ZM64.7384 272.42H66.3984V275.78H64.7384V272.42ZM59.4984 281.8H71.9184V283.16H59.4984V281.8ZM59.4984 277.92H61.1584V282.22H59.4984V277.92ZM65.5584 266C66.8518 266 67.9718 266.147 68.9184 266.44C69.8784 266.72 70.6184 267.133 71.1384 267.68C71.6584 268.213 71.9184 268.853 71.9184 269.6C71.9184 270.36 71.6584 271.013 71.1384 271.56C70.6184 272.093 69.8784 272.507 68.9184 272.8C67.9718 273.08 66.8518 273.22 65.5584 273.22C64.2651 273.22 63.1384 273.08 62.1784 272.8C61.2318 272.507 60.4984 272.093 59.9784 271.56C59.4584 271.013 59.1984 270.36 59.1984 269.6C59.1984 268.853 59.4584 268.213 59.9784 267.68C60.4984 267.133 61.2318 266.72 62.1784 266.44C63.1384 266.147 64.2651 266 65.5584 266ZM65.5584 267.34C64.6251 267.34 63.8051 267.433 63.0984 267.62C62.4051 267.793 61.8651 268.053 61.4784 268.4C61.0918 268.733 60.8984 269.133 60.8984 269.6C60.8984 270.08 61.0918 270.487 61.4784 270.82C61.8651 271.153 62.4051 271.413 63.0984 271.6C63.8051 271.773 64.6251 271.86 65.5584 271.86C66.5184 271.86 67.3451 271.773 68.0384 271.6C68.7318 271.413 69.2651 271.153 69.6384 270.82C70.0251 270.487 70.2184 270.08 70.2184 269.6C70.2184 269.133 70.0251 268.733 69.6384 268.4C69.2651 268.053 68.7318 267.793 68.0384 267.62C67.3451 267.433 66.5184 267.34 65.5584 267.34Z" fill="black"/>
<path d="M40.74 67.28H52.38V68.64H40.74V67.28ZM39 79.64H55.34V81.02H39V79.64ZM45.36 73.18H47V80.34H45.36V73.18ZM51.74 67.28H53.4V69.06C53.4 69.8067 53.3867 70.5933 53.36 71.42C53.3467 72.2467 53.2933 73.1533 53.2 74.14C53.12 75.1267 52.9667 76.2267 52.74 77.44L51.06 77.24C51.4067 75.5067 51.6067 73.9867 51.66 72.68C51.7133 71.36 51.74 70.1533 51.74 69.06V67.28ZM57.3984 75.08H73.7384V76.44H57.3984V75.08ZM64.7384 72.42H66.3984V75.78H64.7384V72.42ZM59.4984 81.8H71.9184V83.16H59.4984V81.8ZM59.4984 77.92H61.1584V82.22H59.4984V77.92ZM65.5584 66C66.8518 66 67.9718 66.1467 68.9184 66.44C69.8784 66.72 70.6184 67.1333 71.1384 67.68C71.6584 68.2133 71.9184 68.8533 71.9184 69.6C71.9184 70.36 71.6584 71.0133 71.1384 71.56C70.6184 72.0933 69.8784 72.5067 68.9184 72.8C67.9718 73.08 66.8518 73.22 65.5584 73.22C64.2651 73.22 63.1384 73.08 62.1784 72.8C61.2318 72.5067 60.4984 72.0933 59.9784 71.56C59.4584 71.0133 59.1984 70.36 59.1984 69.6C59.1984 68.8533 59.4584 68.2133 59.9784 67.68C60.4984 67.1333 61.2318 66.72 62.1784 66.44C63.1384 66.1467 64.2651 66 65.5584 66ZM65.5584 67.34C64.6251 67.34 63.8051 67.4333 63.0984 67.62C62.4051 67.7933 61.8651 68.0533 61.4784 68.4C61.0918 68.7333 60.8984 69.1333 60.8984 69.6C60.8984 70.08 61.0918 70.4867 61.4784 70.82C61.8651 71.1533 62.4051 71.4133 63.0984 71.6C63.8051 71.7733 64.6251 71.86 65.5584 71.86C66.5184 71.86 67.3451 71.7733 68.0384 71.6C68.7318 71.4133 69.2651 71.1533 69.6384 70.82C70.0251 70.4867 70.2184 70.08 70.2184 69.6C70.2184 69.1333 70.0251 68.7333 69.6384 68.4C69.2651 68.0533 68.7318 67.7933 68.0384 67.62C67.3451 67.4333 66.5184 67.34 65.5584 67.34Z" fill="black"/>
<path d="M52.22 358.46H53.88V376.58H52.22V358.46ZM48.34 365.04H52.7V366.4H48.34V365.04ZM43.58 361.04H44.92V363.76C44.92 364.733 44.7867 365.693 44.52 366.64C44.2667 367.573 43.9067 368.453 43.44 369.28C42.9867 370.107 42.4467 370.84 41.82 371.48C41.2067 372.12 40.5467 372.627 39.84 373L38.84 371.68C39.4933 371.36 40.1067 370.92 40.68 370.36C41.2533 369.8 41.7533 369.167 42.18 368.46C42.62 367.74 42.96 366.98 43.2 366.18C43.4533 365.367 43.58 364.56 43.58 363.76V361.04ZM43.94 361.04H45.26V363.76C45.26 364.507 45.38 365.267 45.62 366.04C45.86 366.8 46.1933 367.52 46.62 368.2C47.06 368.88 47.5667 369.493 48.14 370.04C48.7133 370.573 49.3267 370.993 49.98 371.3L49 372.62C48.28 372.26 47.6133 371.773 47 371.16C46.3867 370.547 45.8467 369.847 45.38 369.06C44.9267 368.26 44.5733 367.407 44.32 366.5C44.0667 365.593 43.94 364.68 43.94 363.76V361.04ZM39.52 360.32H49.34V361.68H39.52V360.32ZM57.3984 368.08H73.7384V369.44H57.3984V368.08ZM64.7384 365.42H66.3984V368.78H64.7384V365.42ZM59.4984 374.8H71.9184V376.16H59.4984V374.8ZM59.4984 370.92H61.1584V375.22H59.4984V370.92ZM65.5584 359C66.8518 359 67.9718 359.147 68.9184 359.44C69.8784 359.72 70.6184 360.133 71.1384 360.68C71.6584 361.213 71.9184 361.853 71.9184 362.6C71.9184 363.36 71.6584 364.013 71.1384 364.56C70.6184 365.093 69.8784 365.507 68.9184 365.8C67.9718 366.08 66.8518 366.22 65.5584 366.22C64.2651 366.22 63.1384 366.08 62.1784 365.8C61.2318 365.507 60.4984 365.093 59.9784 364.56C59.4584 364.013 59.1984 363.36 59.1984 362.6C59.1984 361.853 59.4584 361.213 59.9784 360.68C60.4984 360.133 61.2318 359.72 62.1784 359.44C63.1384 359.147 64.2651 359 65.5584 359ZM65.5584 360.34C64.6251 360.34 63.8051 360.433 63.0984 360.62C62.4051 360.793 61.8651 361.053 61.4784 361.4C61.0918 361.733 60.8984 362.133 60.8984 362.6C60.8984 363.08 61.0918 363.487 61.4784 363.82C61.8651 364.153 62.4051 364.413 63.0984 364.6C63.8051 364.773 64.6251 364.86 65.5584 364.86C66.5184 364.86 67.3451 364.773 68.0384 364.6C68.7318 364.413 69.2651 364.153 69.6384 363.82C70.0251 363.487 70.2184 363.08 70.2184 362.6C70.2184 362.133 70.0251 361.733 69.6384 361.4C69.2651 361.053 68.7318 360.793 68.0384 360.62C67.3451 360.433 66.5184 360.34 65.5584 360.34Z" fill="black"/>
<line x1="100" y1="73.5" x2="1000" y2="73.5" stroke="#84A33B" stroke-width="3"/>
<rect x="236.5" y="127.5" width="55" height="20" rx="4.5" fill="#D9D9D9" stroke="black"/>
<rect x="188.5" y="222.5" width="55" height="20" rx="4.5" fill="#D9D9D9" stroke="black"/>
<rect x="344.5" y="270.5" width="55" height="20" rx="4.5" fill="#D9D9D9" stroke="black"/>
<rect x="437.5" y="326.5" width="55" height="20" rx="4.5" fill="#D9D9D9" stroke="black"/>
<rect x="544.5" y="198.5" width="55" height="20" rx="4.5" fill="#D9D9D9" stroke="black"/>
<rect x="835.5" y="241.5" width="55" height="20" rx="4.5" fill="#D9D9D9" stroke="black"/>
<rect x="951.5" y="304.5" width="55" height="20" rx="4.5" fill="#D9D9D9" stroke="black"/>
<rect x="100.5" y="281.5" width="55" height="20" rx="4.5" fill="#D9D9D9" stroke="black"/>
<path d="M156.545 26.2273V23.7273H174V26.2273H166.682V47H163.864V26.2273H156.545ZM177.986 47V29.5455H180.668V47H177.986ZM179.349 26.6364C178.827 26.6364 178.376 26.4583 177.997 26.1023C177.626 25.7462 177.44 25.3182 177.44 24.8182C177.44 24.3182 177.626 23.8902 177.997 23.5341C178.376 23.178 178.827 23 179.349 23C179.872 23 180.319 23.178 180.69 23.5341C181.069 23.8902 181.259 24.3182 181.259 24.8182C181.259 25.3182 181.069 25.7462 180.69 26.1023C180.319 26.4583 179.872 26.6364 179.349 26.6364ZM185.58 47V29.5455H188.17V32.2727H188.398C188.761 31.3409 189.348 30.6174 190.159 30.1023C190.97 29.5795 191.943 29.3182 193.08 29.3182C194.231 29.3182 195.189 29.5795 195.955 30.1023C196.727 30.6174 197.33 31.3409 197.761 32.2727H197.943C198.39 31.3712 199.061 30.6553 199.955 30.125C200.848 29.5871 201.92 29.3182 203.17 29.3182C204.731 29.3182 206.008 29.8068 207 30.7841C207.992 31.7538 208.489 33.2652 208.489 35.3182V47H205.807V35.3182C205.807 34.0303 205.455 33.1098 204.75 32.5568C204.045 32.0038 203.216 31.7273 202.261 31.7273C201.034 31.7273 200.083 32.0985 199.409 32.8409C198.735 33.5758 198.398 34.5076 198.398 35.6364V47H195.67V35.0455C195.67 34.053 195.348 33.2538 194.705 32.6477C194.061 32.0341 193.231 31.7273 192.216 31.7273C191.519 31.7273 190.867 31.9129 190.261 32.2841C189.663 32.6553 189.178 33.1705 188.807 33.8295C188.443 34.4811 188.261 35.2348 188.261 36.0909V47H185.58ZM220.71 47.3636C219.028 47.3636 217.578 46.9924 216.358 46.25C215.146 45.5 214.21 44.4545 213.551 43.1136C212.9 41.7652 212.574 40.197 212.574 38.4091C212.574 36.6212 212.9 35.0455 213.551 33.6818C214.21 32.3106 215.127 31.2424 216.301 30.4773C217.483 29.7045 218.862 29.3182 220.438 29.3182C221.347 29.3182 222.244 29.4697 223.131 29.7727C224.017 30.0758 224.824 30.5682 225.551 31.25C226.278 31.9242 226.858 32.8182 227.29 33.9318C227.722 35.0455 227.938 36.4167 227.938 38.0455V39.1818H214.483V36.8636H225.21C225.21 35.8788 225.013 35 224.619 34.2273C224.233 33.4545 223.68 32.8447 222.96 32.3977C222.248 31.9508 221.407 31.7273 220.438 31.7273C219.369 31.7273 218.445 31.9924 217.665 32.5227C216.892 33.0455 216.297 33.7273 215.881 34.5682C215.464 35.4091 215.256 36.3106 215.256 37.2727V38.8182C215.256 40.1364 215.483 41.2538 215.938 42.1705C216.4 43.0795 217.04 43.7727 217.858 44.25C218.676 44.7197 219.627 44.9545 220.71 44.9545C221.415 44.9545 222.051 44.8561 222.619 44.6591C223.195 44.4545 223.691 44.1515 224.108 43.75C224.525 43.3409 224.847 42.8333 225.074 42.2273L227.665 42.9545C227.392 43.8333 226.934 44.6061 226.29 45.2727C225.646 45.9318 224.85 46.447 223.903 46.8182C222.956 47.1818 221.892 47.3636 220.71 47.3636ZM232.017 47V29.5455H234.608V32.1818H234.79C235.108 31.3182 235.684 30.6174 236.517 30.0795C237.35 29.5417 238.29 29.2727 239.335 29.2727C239.532 29.2727 239.778 29.2765 240.074 29.2841C240.369 29.2917 240.593 29.303 240.744 29.3182V32.0455C240.653 32.0227 240.445 31.9886 240.119 31.9432C239.801 31.8902 239.464 31.8636 239.108 31.8636C238.259 31.8636 237.502 32.0417 236.835 32.3977C236.176 32.7462 235.653 33.2311 235.267 33.8523C234.888 34.4659 234.699 35.1667 234.699 35.9545V47H232.017ZM253.287 23.7273H256.651L264.56 43.0455H264.832L272.741 23.7273H276.105V47H273.469V29.3182H273.241L265.969 47H263.423L256.151 29.3182H255.923V47H253.287V23.7273ZM288.483 47.3636C286.907 47.3636 285.525 46.9886 284.335 46.2386C283.153 45.4886 282.229 44.4394 281.562 43.0909C280.903 41.7424 280.574 40.1667 280.574 38.3636C280.574 36.5455 280.903 34.9583 281.562 33.6023C282.229 32.2462 283.153 31.1932 284.335 30.4432C285.525 29.6932 286.907 29.3182 288.483 29.3182C290.059 29.3182 291.438 29.6932 292.619 30.4432C293.809 31.1932 294.733 32.2462 295.392 33.6023C296.059 34.9583 296.392 36.5455 296.392 38.3636C296.392 40.1667 296.059 41.7424 295.392 43.0909C294.733 44.4394 293.809 45.4886 292.619 46.2386C291.438 46.9886 290.059 47.3636 288.483 47.3636ZM288.483 44.9545C289.68 44.9545 290.665 44.6477 291.438 44.0341C292.21 43.4205 292.782 42.6136 293.153 41.6136C293.525 40.6136 293.71 39.5303 293.71 38.3636C293.71 37.197 293.525 36.1098 293.153 35.1023C292.782 34.0947 292.21 33.2803 291.438 32.6591C290.665 32.0379 289.68 31.7273 288.483 31.7273C287.286 31.7273 286.301 32.0379 285.528 32.6591C284.756 33.2803 284.184 34.0947 283.812 35.1023C283.441 36.1098 283.256 37.197 283.256 38.3636C283.256 39.5303 283.441 40.6136 283.812 41.6136C284.184 42.6136 284.756 43.4205 285.528 44.0341C286.301 44.6477 287.286 44.9545 288.483 44.9545ZM307.077 47.3636C305.622 47.3636 304.338 46.9962 303.224 46.2614C302.111 45.5189 301.24 44.4735 300.611 43.125C299.982 41.7689 299.668 40.1667 299.668 38.3182C299.668 36.4848 299.982 34.8939 300.611 33.5455C301.24 32.197 302.115 31.1553 303.236 30.4205C304.357 29.6856 305.652 29.3182 307.122 29.3182C308.259 29.3182 309.156 29.5076 309.815 29.8864C310.482 30.2576 310.99 30.6818 311.338 31.1591C311.694 31.6288 311.971 32.0152 312.168 32.3182H312.395V23.7273H315.077V47H312.486V44.3182H312.168C311.971 44.6364 311.69 45.0379 311.327 45.5227C310.963 46 310.444 46.428 309.77 46.8068C309.096 47.178 308.198 47.3636 307.077 47.3636ZM307.44 44.9545C308.516 44.9545 309.425 44.6742 310.168 44.1136C310.91 43.5455 311.474 42.7614 311.861 41.7614C312.247 40.7538 312.44 39.5909 312.44 38.2727C312.44 36.9697 312.251 35.8295 311.872 34.8523C311.493 33.8674 310.933 33.1023 310.19 32.5568C309.448 32.0038 308.531 31.7273 307.44 31.7273C306.304 31.7273 305.357 32.0189 304.599 32.6023C303.849 33.178 303.285 33.9621 302.906 34.9545C302.535 35.9394 302.349 37.0455 302.349 38.2727C302.349 39.5152 302.539 40.6439 302.918 41.6591C303.304 42.6667 303.872 43.4697 304.622 44.0682C305.38 44.6591 306.319 44.9545 307.44 44.9545ZM327.679 47.3636C325.997 47.3636 324.546 46.9924 323.327 46.25C322.115 45.5 321.179 44.4545 320.52 43.1136C319.868 41.7652 319.543 40.197 319.543 38.4091C319.543 36.6212 319.868 35.0455 320.52 33.6818C321.179 32.3106 322.096 31.2424 323.27 30.4773C324.452 29.7045 325.83 29.3182 327.406 29.3182C328.315 29.3182 329.213 29.4697 330.099 29.7727C330.986 30.0758 331.793 30.5682 332.52 31.25C333.247 31.9242 333.827 32.8182 334.259 33.9318C334.69 35.0455 334.906 36.4167 334.906 38.0455V39.1818H321.452V36.8636H332.179C332.179 35.8788 331.982 35 331.588 34.2273C331.202 33.4545 330.649 32.8447 329.929 32.3977C329.217 31.9508 328.376 31.7273 327.406 31.7273C326.338 31.7273 325.414 31.9924 324.634 32.5227C323.861 33.0455 323.266 33.7273 322.849 34.5682C322.433 35.4091 322.224 36.3106 322.224 37.2727V38.8182C322.224 40.1364 322.452 41.2538 322.906 42.1705C323.368 43.0795 324.009 43.7727 324.827 44.25C325.645 44.7197 326.596 44.9545 327.679 44.9545C328.384 44.9545 329.02 44.8561 329.588 44.6591C330.164 44.4545 330.66 44.1515 331.077 43.75C331.493 43.3409 331.815 42.8333 332.043 42.2273L334.634 42.9545C334.361 43.8333 333.902 44.6061 333.259 45.2727C332.615 45.9318 331.819 46.447 330.872 46.8182C329.925 47.1818 328.861 47.3636 327.679 47.3636ZM350.395 22.424H368.507V24.568H350.395V22.424ZM347.131 34.84H373.275V37.048H347.131V34.84ZM358.811 36.312H361.467V49.528H358.811V36.312ZM367.227 22.424H369.851V24.952C369.851 25.9547 369.83 27.0107 369.787 28.12C369.766 29.2293 369.681 30.456 369.531 31.8C369.382 33.1227 369.126 34.5947 368.763 36.216L366.107 35.864C366.683 33.5387 367.014 31.5013 367.099 29.752C367.185 28.0027 367.227 26.4027 367.227 24.952V22.424ZM396.345 20.536H399.033V41.688H396.345V20.536ZM398.201 29.304H403.289V31.544H398.201V29.304ZM388.441 22.776H391.257C391.257 25.272 390.702 27.5333 389.593 29.56C388.505 31.5867 386.947 33.3467 384.921 34.84C382.894 36.3333 380.494 37.5173 377.721 38.392L376.601 36.248C379.033 35.48 381.134 34.488 382.905 33.272C384.675 32.056 386.041 30.6587 387.001 29.08C387.961 27.5013 388.441 25.7947 388.441 23.96V22.776ZM377.785 22.776H389.817V24.984H377.785V22.776ZM380.985 46.68H400.281V48.856H380.985V46.68ZM380.985 39.544H383.641V47.544H380.985V39.544ZM419.67 24.664H427.798V26.712H419.67V24.664ZM419.67 29.912H427.798V31.992H419.67V29.912ZM427.158 20.536H429.782V35.64H427.158V20.536ZM411.158 37.048H429.782V43.928H413.846V48.376H411.222V41.912H427.158V39.16H411.158V37.048ZM411.222 46.968H430.87V49.112H411.222V46.968ZM407.414 21.88H410.07V26.008H417.878V21.88H420.502V34.488H407.414V21.88ZM410.07 28.088V32.344H417.878V28.088H410.07ZM452.06 23.032H454.268V28.216C454.268 29.88 454.054 31.5013 453.628 33.08C453.222 34.6373 452.636 36.0987 451.868 37.464C451.121 38.808 450.236 40.0027 449.212 41.048C448.209 42.072 447.11 42.8827 445.916 43.48L444.284 41.272C445.372 40.7813 446.385 40.0773 447.324 39.16C448.262 38.2427 449.084 37.208 449.788 36.056C450.492 34.8827 451.046 33.624 451.452 32.28C451.857 30.936 452.06 29.5813 452.06 28.216V23.032ZM452.508 23.032H454.716V28.216C454.716 29.5387 454.908 30.84 455.292 32.12C455.697 33.4 456.252 34.616 456.956 35.768C457.681 36.8987 458.502 37.9013 459.42 38.776C460.358 39.6293 461.361 40.3013 462.428 40.792L460.828 42.904C459.654 42.3493 458.566 41.5707 457.564 40.568C456.561 39.5653 455.676 38.4133 454.908 37.112C454.161 35.8107 453.574 34.4027 453.148 32.888C452.721 31.3733 452.508 29.816 452.508 28.216V23.032ZM465.468 20.536H468.124V49.528H465.468V20.536ZM493.657 20.536H496.345V41.688H493.657V20.536ZM495.513 29.304H500.601V31.544H495.513V29.304ZM485.753 22.776H488.569C488.569 25.272 488.015 27.5333 486.905 29.56C485.817 31.5867 484.26 33.3467 482.233 34.84C480.207 36.3333 477.807 37.5173 475.033 38.392L473.913 36.248C476.345 35.48 478.447 34.488 480.217 33.272C481.988 32.056 483.353 30.6587 484.313 29.08C485.273 27.5013 485.753 25.7947 485.753 23.96V22.776ZM475.097 22.776H487.129V24.984H475.097V22.776ZM478.297 46.68H497.593V48.856H478.297V46.68ZM478.297 39.544H480.953V47.544H478.297V39.544ZM505.128 37.1818C505.128 34.3182 505.499 31.6856 506.241 29.2841C506.991 26.875 508.06 24.6591 509.446 22.6364H511.81C511.264 23.3864 510.753 24.3106 510.276 25.4091C509.806 26.5 509.393 27.7008 509.037 29.0114C508.681 30.3144 508.401 31.6629 508.196 33.0568C507.999 34.4508 507.901 35.8258 507.901 37.1818C507.901 38.9848 508.075 40.8144 508.423 42.6705C508.772 44.5265 509.241 46.25 509.832 47.8409C510.423 49.4318 511.082 50.7273 511.81 51.7273H509.446C508.06 49.7045 506.991 47.4924 506.241 45.0909C505.499 42.6818 505.128 40.0455 505.128 37.1818ZM515.767 47V29.5455H518.358V32.2727H518.585C518.949 31.3409 519.536 30.6174 520.347 30.1023C521.157 29.5795 522.131 29.3182 523.267 29.3182C524.419 29.3182 525.377 29.5795 526.142 30.1023C526.915 30.6174 527.517 31.3409 527.949 32.2727H528.131C528.578 31.3712 529.248 30.6553 530.142 30.125C531.036 29.5871 532.108 29.3182 533.358 29.3182C534.919 29.3182 536.195 29.8068 537.188 30.7841C538.18 31.7538 538.676 33.2652 538.676 35.3182V47H535.994V35.3182C535.994 34.0303 535.642 33.1098 534.938 32.5568C534.233 32.0038 533.403 31.7273 532.449 31.7273C531.222 31.7273 530.271 32.0985 529.597 32.8409C528.922 33.5758 528.585 34.5076 528.585 35.6364V47H525.858V35.0455C525.858 34.053 525.536 33.2538 524.892 32.6477C524.248 32.0341 523.419 31.7273 522.403 31.7273C521.706 31.7273 521.055 31.9129 520.449 32.2841C519.85 32.6553 519.366 33.1705 518.994 33.8295C518.631 34.4811 518.449 35.2348 518.449 36.0909V47H515.767ZM543.58 47V29.5455H546.261V47H543.58ZM544.943 26.6364C544.42 26.6364 543.97 26.4583 543.591 26.1023C543.22 25.7462 543.034 25.3182 543.034 24.8182C543.034 24.3182 543.22 23.8902 543.591 23.5341C543.97 23.178 544.42 23 544.943 23C545.466 23 545.913 23.178 546.284 23.5341C546.663 23.8902 546.852 24.3182 546.852 24.8182C546.852 25.3182 546.663 25.7462 546.284 26.1023C545.913 26.4583 545.466 26.6364 544.943 26.6364ZM553.855 36.5V47H551.173V29.5455H553.764V32.2727H553.991C554.401 31.3864 555.022 30.6742 555.855 30.1364C556.688 29.5909 557.764 29.3182 559.082 29.3182C560.264 29.3182 561.298 29.5606 562.185 30.0455C563.071 30.5227 563.76 31.25 564.253 32.2273C564.745 33.197 564.991 34.4242 564.991 35.9091V47H562.31V36.0909C562.31 34.7197 561.954 33.6515 561.241 32.8864C560.529 32.1136 559.552 31.7273 558.31 31.7273C557.454 31.7273 556.688 31.9129 556.014 32.2841C555.348 32.6553 554.821 33.197 554.435 33.9091C554.048 34.6212 553.855 35.4848 553.855 36.5ZM575.619 37.1818C575.619 40.0455 575.244 42.6818 574.494 45.0909C573.752 47.4924 572.688 49.7045 571.301 51.7273H568.938C569.483 50.9773 569.991 50.053 570.46 48.9545C570.938 47.8636 571.354 46.6667 571.71 45.3636C572.066 44.053 572.343 42.7008 572.54 41.3068C572.744 39.9053 572.847 38.5303 572.847 37.1818C572.847 35.3788 572.672 33.5492 572.324 31.6932C571.975 29.8371 571.506 28.1136 570.915 26.5227C570.324 24.9318 569.665 23.6364 568.938 22.6364H571.301C572.688 24.6591 573.752 26.875 574.494 29.2841C575.244 31.6856 575.619 34.3182 575.619 37.1818ZM589.599 35.832H615.839V37.976H589.599V35.832ZM601.567 36.92H604.223V43.576H601.567V36.92ZM592.927 46.68H612.927V48.856H592.927V46.68ZM592.927 40.984H595.551V47.48H592.927V40.984ZM593.087 21.464H595.711V25.144H609.727V21.464H612.351V33.048H593.087V21.464ZM595.711 27.192V30.904H609.727V27.192H595.711ZM638.877 20.536H641.533V41.496H638.877V20.536ZM640.701 29.112H645.821V31.32H640.701V29.112ZM620.413 34.168H622.653C624.637 34.168 626.375 34.1467 627.869 34.104C629.362 34.0613 630.738 33.9653 631.997 33.816C633.255 33.6667 634.525 33.464 635.805 33.208L636.125 35.384C634.781 35.64 633.458 35.8427 632.157 35.992C630.877 36.1413 629.479 36.248 627.965 36.312C626.45 36.3547 624.679 36.376 622.653 36.376H620.413V34.168ZM620.413 23.032H633.181V25.208H623.037V35.352H620.413V23.032ZM623.517 46.68H642.813V48.856H623.517V46.68ZM623.517 39.384H626.141V47.672H623.517V39.384ZM657.946 21.912C659.397 21.912 660.677 22.168 661.786 22.68C662.896 23.1707 663.76 23.864 664.378 24.76C665.018 25.6347 665.338 26.6693 665.338 27.864C665.338 29.016 665.018 30.0507 664.378 30.968C663.76 31.864 662.896 32.568 661.786 33.08C660.677 33.5707 659.397 33.816 657.946 33.816C656.538 33.816 655.28 33.5707 654.17 33.08C653.061 32.568 652.186 31.864 651.546 30.968C650.906 30.0507 650.586 29.016 650.586 27.864C650.586 26.6693 650.906 25.6347 651.546 24.76C652.186 23.864 653.061 23.1707 654.17 22.68C655.28 22.168 656.538 21.912 657.946 21.912ZM657.946 24.088C657.029 24.088 656.208 24.248 655.482 24.568C654.757 24.888 654.181 25.336 653.754 25.912C653.349 26.4667 653.146 27.1173 653.146 27.864C653.146 28.5893 653.349 29.24 653.754 29.816C654.181 30.3707 654.757 30.808 655.482 31.128C656.208 31.448 657.029 31.608 657.946 31.608C658.906 31.608 659.749 31.448 660.474 31.128C661.2 30.808 661.765 30.3707 662.17 29.816C662.597 29.24 662.81 28.5893 662.81 27.864C662.81 27.1173 662.597 26.4667 662.17 25.912C661.765 25.336 661.2 24.888 660.474 24.568C659.749 24.248 658.906 24.088 657.946 24.088ZM656.794 37.048H659.45V48.6H656.794V37.048ZM669.594 20.568H672.218V49.496H669.594V20.568ZM648.794 38.488L648.442 36.248C650.234 36.248 652.197 36.2267 654.33 36.184C656.485 36.1413 658.693 36.0453 660.954 35.896C663.237 35.7467 665.424 35.512 667.514 35.192L667.706 37.176C665.552 37.5813 663.354 37.88 661.114 38.072C658.874 38.2427 656.698 38.3493 654.586 38.392C652.496 38.4347 650.565 38.4667 648.794 38.488ZM708 20.536H710.656V36.088H708V20.536ZM692.032 37.528H694.624V41.016H708.032V37.528H710.656V49.112H692.032V37.528ZM694.624 43.128V46.936H708.032V43.128H694.624ZM695.136 21.912C696.608 21.912 697.909 22.2 699.04 22.776C700.17 23.3307 701.056 24.1093 701.696 25.112C702.357 26.1147 702.688 27.2773 702.688 28.6C702.688 29.9013 702.357 31.064 701.696 32.088C701.056 33.0907 700.17 33.8693 699.04 34.424C697.909 34.9787 696.608 35.256 695.136 35.256C693.685 35.256 692.384 34.9787 691.232 34.424C690.101 33.8693 689.205 33.0907 688.544 32.088C687.904 31.064 687.584 29.9013 687.584 28.6C687.584 27.2773 687.904 26.1147 688.544 25.112C689.205 24.1093 690.101 23.3307 691.232 22.776C692.384 22.2 693.685 21.912 695.136 21.912ZM695.136 24.152C694.176 24.152 693.322 24.344 692.576 24.728C691.829 25.0907 691.242 25.6133 690.816 26.296C690.389 26.9573 690.176 27.7253 690.176 28.6C690.176 29.4533 690.389 30.2213 690.816 30.904C691.242 31.5653 691.829 32.088 692.576 32.472C693.322 32.856 694.176 33.048 695.136 33.048C696.096 33.048 696.949 32.856 697.696 32.472C698.442 32.088 699.029 31.5653 699.456 30.904C699.882 30.2213 700.096 29.4533 700.096 28.6C700.096 27.7253 699.882 26.9573 699.456 26.296C699.029 25.6133 698.442 25.0907 697.696 24.728C696.949 24.344 696.096 24.152 695.136 24.152ZM717.597 34.904H719.645C721.544 34.904 723.165 34.8933 724.509 34.872C725.875 34.8293 727.112 34.7547 728.221 34.648C729.352 34.5413 730.493 34.3813 731.645 34.168L731.901 36.344C731.027 36.4933 730.163 36.6213 729.309 36.728C728.456 36.8133 727.56 36.8773 726.621 36.92C725.683 36.9627 724.648 36.9947 723.517 37.016C722.387 37.0373 721.096 37.048 719.645 37.048H717.597V34.904ZM717.533 22.296H729.981V30.488H720.221V36.184H717.597V28.44H727.357V24.44H717.533V22.296ZM737.533 20.568H740.189V38.36H737.533V20.568ZM731.901 24.856H738.141V27H731.901V24.856ZM731.901 30.84H738.141V33.016H731.901V30.84ZM720.829 39.896H740.189V49.528H737.533V42.072H720.829V39.896Z" fill="black"/>
</svg>
